<svg width="30" height="30" viewBox="0 0 30 30" fill="none" xmlns="http://www.w3.org/2000/svg">
<path fill-rule="evenodd" clip-rule="evenodd" d="M15 29C22.732 29 29 22.732 29 15C29 7.26801 22.732 1 15 1C7.26801 1 1 7.26801 1 15C1 22.732 7.26801 29 15 29ZM15 30C23.2843 30 30 23.2843 30 15C30 6.71573 23.2843 0 15 0C6.71573 0 0 6.71573 0 15C0 23.2843 6.71573 30 15 30Z" fill="black"/>
<path fill-rule="evenodd" clip-rule="evenodd" d="M16.7203 12.4592L13.8329 11.7258L14.2022 10.272L19.2931 11.5652L18.7937 16.794L17.3005 16.6514L17.5838 13.6858L11.5579 17.928C11.2192 18.1664 10.7514 18.0852 10.5129 17.7465C10.2745 17.4078 10.3557 16.9399 10.6944 16.7015L16.7203 12.4592Z" fill="#E31D1C"/>
</svg>
